HIERARCHY
ROOT Hips
{
 OFFSET 0.000000 0.000000 0.000000
 CHANNELS 6 Xposition Yposition Zposition Yrotation Xrotation Zrotation
 JOINT Chest
 {
  OFFSET 0.000000 9.585900 0.002600
  CHANNELS 3 Yrotation Xrotation Zrotation
  JOINT Chest2
  {
   OFFSET 0.000000 9.601200 -0.005300
   CHANNELS 3 Yrotation Xrotation Zrotation
   JOINT Chest3
   {
    OFFSET 0.000000 9.561800 0.000000
    CHANNELS 3 Yrotation Xrotation Zrotation
    JOINT Chest4
    {
     OFFSET 0.000000 9.552100 0.000000
     CHANNELS 3 Yrotation Xrotation Zrotation
     JOINT Neck
     {
      OFFSET 0.000000 14.453000 0.000000
      CHANNELS 3 Yrotation Xrotation Zrotation
      JOINT Head
      {
       OFFSET 0.000000 8.936500 -0.011300
       CHANNELS 3 Yrotation Xrotation Zrotation
       End Site
       {
        OFFSET 0.000000 17.073600 -0.006000
       }
      }
     }
     JOINT RightCollar
     {
      OFFSET -2.921100 9.558500 0.000000
      CHANNELS 3 Yrotation Xrotation Zrotation
      JOINT RightShoulder
      {
       OFFSET -13.519700 0.000000 0.000000
       CHANNELS 3 Yrotation Xrotation Zrotation
       JOINT RightElbow
       {
        OFFSET 0.000000 -29.696600 0.000000
        CHANNELS 3 Yrotation Xrotation Zrotation
        JOINT RightWrist
        {
         OFFSET 0.000000 -24.004700 0.000000
         CHANNELS 3 Yrotation Xrotation Zrotation
         End Site
         {
          OFFSET 0.000000 -17.728500 0.000000
         }
        }
       }
      }
     }
     JOINT LeftCollar
     {
      OFFSET 2.921100 9.558500 0.000000
      CHANNELS 3 Yrotation Xrotation Zrotation
      JOINT LeftShoulder
      {
       OFFSET 13.519700 0.000000 0.000000
       CHANNELS 3 Yrotation Xrotation Zrotation
       JOINT LeftElbow
       {
        OFFSET 0.000000 -29.696600 0.000000
        CHANNELS 3 Yrotation Xrotation Zrotation
        JOINT LeftWrist
        {
         OFFSET 0.000000 -24.004700 0.000000
         CHANNELS 3 Yrotation Xrotation Zrotation
         End Site
         {
          OFFSET 0.000000 -17.728500 0.000000
         }
        }
       }
      }
     }
    }
   }
  }
 }
 JOINT RightHip
 {
  OFFSET -7.771700 -0.012900 -0.001300
  CHANNELS 3 Yrotation Xrotation Zrotation
  JOINT RightKnee
  {
   OFFSET 0.000000 -40.869800 0.001200
   CHANNELS 3 Yrotation Xrotation Zrotation
   JOINT RightAnkle
   {
    OFFSET 0.000000 -39.717900 0.002100
    CHANNELS 3 Yrotation Xrotation Zrotation
    JOINT RightToe
    {
     OFFSET 0.000000 -4.965400 11.033500
     CHANNELS 3 Yrotation Xrotation Zrotation
     End Site
     {
      OFFSET 0.000000 -1.423100 5.872300
     }
    }
   }
  }
 }
 JOINT LeftHip
 {
  OFFSET 7.771700 -0.012900 -0.001300
  CHANNELS 3 Yrotation Xrotation Zrotation
  JOINT LeftKnee
  {
   OFFSET 0.000000 -40.869800 0.001200
   CHANNELS 3 Yrotation Xrotation Zrotation
   JOINT LeftAnkle
   {
    OFFSET 0.000000 -39.717900 0.002100
    CHANNELS 3 Yrotation Xrotation Zrotation
    JOINT LeftToe
    {
     OFFSET 0.000000 -4.965400 11.033500
     CHANNELS 3 Yrotation Xrotation Zrotation
     End Site
     {
      OFFSET 0.000000 -1.423100 5.872300
     }
    }
   }
  }
 }
}
MOTION
Frames: 11
Frame Time: 0.008333
-194.198323 58.030115 28.566159 171.861755 -49.630369 -3.388839 5.407535 22.242702 3.601082 2.767528 12.750788 1.854885 3.548341 15.922761 2.433172 2.767507 12.750834 1.854996 0.994244 15.187340 1.569735 1.399517 -7.475144 2.484209 1.466775 4.653315 0.652072 1.220666 -13.190568 -10.499009 -78.210477 -60.333012 119.244503 -1.881102 6.892083 -22.388402 -10.832433 1.444254 -1.421483 0.853878 -11.855899 15.475643 65.298927 -55.994821 -113.307762 3.265991 0.760454 12.867713 4.324118 -22.942803 0.400756 -38.268322 73.191352 -39.865381 5.632299 -12.478992 9.474903 0.056195 -0.240604 0.028600 -2.448112 -21.387122 11.998032 52.608117 79.349203 52.073323 4.451087 -15.938106 -16.411793 0.087234 0.190215 0.038967
-194.199347 58.029363 28.564934 171.859976 -49.630256 -3.384327 5.409790 22.244741 3.601473 2.767462 12.752288 1.858579 3.552684 15.923038 2.435726 2.770450 12.752198 1.861186 1.058255 15.261020 1.530038 1.445413 -7.424192 2.449575 1.455476 4.658188 0.649260 1.240427 -13.166358 -10.502581 -78.218663 -60.206000 119.304188 -2.262005 6.307748 -23.054834 -10.864383 1.447183 -1.421941 0.863291 -11.803215 15.453103 65.482181 -56.003380 -113.463251 3.469061 0.376994 13.051049 4.328862 -22.944103 0.395610 -38.275457 73.196274 -39.868306 5.629110 -12.481743 9.469883 0.058100 -0.240832 0.030001 -2.448258 -21.386666 11.991772 52.612767 79.348118 52.077622 4.452398 -15.942169 -16.406122 0.087224 0.193799 0.032891
-194.199940 58.029213 28.563522 171.859614 -49.635121 -3.384570 5.409057 22.250378 3.601724 2.764658 12.753310 1.862545 3.555783 15.922162 2.431677 2.771658 12.755166 1.872007 1.110020 15.322813 1.501834 1.520539 -7.344435 2.396275 1.465055 4.665436 0.657568 1.252682 -13.149406 -10.518660 -78.199050 -60.020432 119.346447 -2.635054 5.707462 -23.740472 -10.881943 1.449801 -1.423785 0.883599 -11.792134 15.426915 65.521481 -56.014190 -113.500909 3.687058 -0.035171 13.207729 4.328304 -22.935203 0.393649 -38.261034 73.196060 -39.852091 5.632730 -12.490226 9.468517 0.056469 -0.233474 0.028428 -2.449268 -21.382005 11.989002 52.614239 79.350541 52.080171 4.461064 -15.944316 -16.405056 0.084223 0.195562 0.029438
-194.200161 58.028888 28.562620 171.852189 -49.639359 -3.382874 5.408011 22.254678 3.603421 2.767539 12.756000 1.869058 3.555689 15.922512 2.432744 2.774393 12.758158 1.877339 1.138663 15.359956 1.478602 1.619830 -7.231705 2.327291 1.472547 4.655831 0.664550 1.253838 -13.135017 -10.538774 -78.141898 -59.774811 119.365282 -2.987344 5.125037 -24.415781 -10.885362 1.454646 -1.425503 0.896587 -11.791893 15.390400 65.681356 -55.893907 -113.668539 3.833500 -0.306692 13.373697 4.331111 -22.931185 0.396709 -38.255567 73.197438 -39.846061 5.638602 -12.491037 9.468231 0.049725 -0.232972 0.026106 -2.446190 -21.378374 11.991904 52.642549 79.350721 52.108035 4.463230 -15.949212 -16.403645 0.077973 0.197572 0.027927
-194.200769 58.028176 28.562289 171.846150 -49.641288 -3.380671 5.405786 22.257977 3.608092 2.771149 12.758981 1.873152 3.553213 15.922810 2.434249 2.778855 12.761688 1.882902 1.140904 15.367774 1.458253 1.743500 -7.084802 2.242578 1.481055 4.631475 0.672490 1.277351 -13.081497 -10.549809 -78.156393 -59.516816 119.433312 -3.328053 4.575974 -25.067317 -10.870581 1.469600 -1.397538 0.905212 -11.810704 15.313843 65.771061 -55.801330 -113.786627 4.008147 -0.600758 13.521013 4.333159 -22.929721 0.398322 -38.261789 73.195849 -39.849902 5.639803 -12.491702 9.465862 0.044011 -0.230988 0.026230 -2.443726 -21.377614 11.993122 52.648923 79.353896 52.114875 4.469328 -15.951650 -16.403817 0.076023 0.196403 0.029582
-194.201049 58.027186 28.562645 171.837704 -49.641653 -3.378931 5.408044 22.263364 3.622871 2.773087 12.756278 1.865940 3.554890 15.927463 2.443388 2.781906 12.762373 1.888805 1.218353 15.468322 1.419184 1.792725 -7.030983 2.186541 1.492642 4.565973 0.705446 1.289873 -12.987676 -10.575248 -78.168361 -59.255292 119.513900 -3.666822 4.051382 -25.690314 -10.852309 1.475513 -1.370709 0.919138 -11.828597 15.228704 65.771429 -55.784646 -113.821877 4.236677 -0.957743 13.643687 4.335804 -22.932237 0.403624 -38.288506 73.190312 -39.875230 5.642607 -12.487479 9.470173 0.047087 -0.232232 0.022988 -2.441328 -21.378440 12.000174 52.667502 79.354444 52.134743 4.461351 -15.954960 -16.407140 0.078157 0.195430 0.032588
-194.202393 58.026414 28.562988 171.835599 -49.644346 -3.375220 5.408585 22.267154 3.626257 2.771859 12.757550 1.865932 3.563889 15.932768 2.467314 2.778319 12.760744 1.880663 1.271496 15.538838 1.383983 1.866827 -6.944559 2.117639 1.476672 4.525239 0.717243 1.295950 -12.908858 -10.539148 -78.173085 -59.035480 119.618755 -4.012520 3.526411 -26.289464 -10.836649 1.487722 -1.342016 0.940482 -11.856461 15.135884 65.756440 -55.769128 -113.849189 4.463073 -1.335781 13.782058 4.339306 -22.929283 0.400495 -38.300200 73.185665 -39.881535 5.636001 -12.486554 9.472178 0.060744 -0.229145 0.021057 -2.439735 -21.375448 11.998919 52.654208 79.354995 52.118039 4.460191 -15.958464 -16.402973 0.078934 0.199252 0.031956
-194.202228 58.025826 28.563950 171.838861 -49.648185 -3.384555 5.409826 22.270587 3.635956 2.782320 12.754259 1.885814 3.560438 15.935139 2.466275 2.776336 12.761008 1.880907 1.313013 15.595250 1.352373 1.956128 -6.839913 2.043883 1.453706 4.492157 0.736129 1.281942 -12.844008 -10.507229 -78.136200 -58.817923 119.719109 -4.373320 2.963233 -26.889189 -10.819986 1.516290 -1.303770 0.941148 -11.890481 15.059090 65.946383 -55.630595 -114.059445 4.624734 -1.635345 13.991795 4.336252 -22.925876 0.407640 -38.301067 73.183238 -39.880193 5.645406 -12.484250 9.472986 0.060536 -0.230517 0.019567 -2.446342 -21.374308 12.007103 52.684001 79.353748 52.147634 4.457233 -15.957558 -16.404551 0.077895 0.197929 0.032430
-194.203258 58.025485 28.564868 171.850508 -49.654279 -3.392709 5.406519 22.271133 3.642888 2.785272 12.750383 1.888637 3.561557 15.934776 2.471273 2.777176 12.760716 1.884886 1.357225 15.653897 1.321938 2.049886 -6.731122 1.971418 1.426672 4.471515 0.758186 1.272146 -12.789734 -10.486319 -78.064759 -58.588746 119.796640 -4.744923 2.330957 -27.509985 -10.801603 1.561553 -1.259702 0.973624 -11.939959 14.938245 66.077026 -55.604761 -114.209347 4.829191 -2.038719 14.210266 4.331060 -22.919060 0.409738 -38.314833 73.180191 -39.895888 5.640822 -12.481282 9.481520 0.054637 -0.232125 0.016832 -2.457000 -21.369754 12.005167 52.696131 79.350944 52.159585 4.464057 -15.954984 -16.412645 0.080227 0.197710 0.036805
-194.203923 58.025110 28.566304 171.853471 -49.660456 -3.396492 5.419321 22.252426 3.659332 2.777380 12.758980 1.888574 3.561936 15.932558 2.475876 2.771919 12.771002 1.883451 1.410762 15.703535 1.295874 2.148243 -6.616734 1.899305 1.401057 4.447342 0.782334 1.289778 -12.751447 -10.502654 -77.962740 -58.305536 119.824701 -5.111822 1.634840 -28.140784 -10.775743 1.610010 -1.208064 1.011456 -11.988017 14.810386 66.239736 -55.618631 -114.358339 5.017636 -2.495102 14.437197 4.330785 -22.911032 0.411870 -38.307093 73.176899 -39.884924 5.636070 -12.481860 9.480711 0.062528 -0.227297 0.019273 -2.464058 -21.363173 12.006569 52.727783 79.343513 52.186910 4.462792 -15.956883 -16.414582 0.080006 0.200030 0.037154
-194.205046 58.025504 28.567275 171.859014 -49.673159 -3.398771 5.421279 22.248244 3.665781 2.776383 12.756543 1.891679 3.560893 15.929478 2.479745 2.769391 12.783769 1.882211 1.464001 15.752739 1.270694 2.252472 -6.496987 1.827768 1.369415 4.423123 0.803734 1.295537 -12.696713 -10.483959 -77.851052 -58.022285 119.870976 -5.457004 0.907123 -28.774778 -10.751881 1.663312 -1.154617 1.052377 -12.023817 14.684091 66.493816 -55.630019 -114.558556 5.165174 -2.935744 14.676661 4.331080 -22.895714 0.409010 -38.286084 73.176632 -39.861002 5.629696 -12.482159 9.481400 0.049557 -0.224066 0.018141 -2.467464 -21.349852 12.004258 52.724529 79.340228 52.181873 4.462925 -15.956611 -16.415936 0.082158 0.200391 0.038600
